<svg xmlns="http://www.w3.org/2000/svg" viewBox="0 0 138.98 71.57"><defs><style>.cls-1,.cls-10,.cls-16{fill:#fff;}.cls-2{fill:#ccc4b7;}.cls-3{fill:#c8a386;}.cls-4{fill:#d43b2a;}.cls-5{fill:#b3a792;}.cls-6{fill:#bb2324;}.cls-7{fill:#ac5642;}.cls-8{fill:#f0f0f0;}.cls-9{fill:none;stroke:#7a4d29;stroke-miterlimit:10;stroke-width:0.63px;}.cls-10,.cls-16{font-size:4.49px;font-family:EditorialNew-Ultrabold, Editorial New;font-weight:700;}.cls-10,.cls-20{letter-spacing:0.08em;}.cls-11{letter-spacing:0.05em;}.cls-12{letter-spacing:0.02em;}.cls-13{letter-spacing:0.08em;}.cls-14{letter-spacing:0.02em;}.cls-15{letter-spacing:0.06em;}.cls-16{letter-spacing:-0.06em;}.cls-17{letter-spacing:0.02em;}.cls-18{letter-spacing:0.02em;}.cls-19{letter-spacing:0em;}.cls-21{letter-spacing:0.07em;}.cls-22{letter-spacing:0.06em;}.cls-23{letter-spacing:0.07em;}.cls-24{letter-spacing:0.06em;}</style></defs><g id="Layer_2" data-name="Layer 2"><g id="Layer_1-2" data-name="Layer 1"><path d="M0,71.57C0,32,31.11,0,69.49,0S139,32,139,71.57Z"/><path class="cls-1" d="M26.82,42.72l.26.09-.3.83c-.6,1.66-.8,2.16-2.24,2.21L22,46.06l-.05.14-.08.21,2.39.87c.56.2.9.08,1.2-.74l.27.1-1.48,4-.27-.1c.3-.81.12-1.12-.44-1.33l-5.2-1.9c-.56-.2-.9-.07-1.2.74l-.27-.1,1.35-3.68c.75-2.08,1.77-2.68,3-2.22,1.44.52,1.4,1.81,1.06,3.07h0c.42-.8.86-1.25,2.33-1.39l1.06-.11A1.21,1.21,0,0,0,26.82,42.72ZM21.39,46a1.37,1.37,0,0,0-1-2c-1-.35-1.53-.09-1.76.53a1.26,1.26,0,0,0-.05.65l2.71,1Z"/><path class="cls-1" d="M23.69,33.86l1.59.65-.11.25c-1.16-.46-1.63-.36-1.92.16l-.85,1.51,2.53,1.42.4-.71c.29-.52.21-.89-.62-1.36l.13-.24L27.43,37l-.14.24c-.83-.47-1.19-.35-1.48.17l-.4.71,2.38,1.35c.4.22.53.2.72-.13l.7-1.26c.3-.52.09-1.09-1-2.14l.19-.2L29.9,37.2l.29.27-3,5.33-.25-.14c.42-.75.3-1.1-.22-1.39L21.9,38.55c-.52-.29-.88-.22-1.3.53l-.25-.14L23.3,33.7Z"/><path class="cls-1" d="M30.11,36.9c.53-.68.46-1,0-1.41l-4.34-3.44c-.47-.37-.83-.36-1.37.32l-.22-.18L26.73,29c1.19-1.5,3.16-2.66,5.59-.73s1.71,4.16.57,5.61l-2.56,3.23ZM30.9,30c-1.7-1.35-2.93-1.74-3.74-.72a1.84,1.84,0,0,0-.43.83l5,4a1.91,1.91,0,0,0,.71-.6C33.27,32.48,32.6,31.38,30.9,30Z"/><path class="cls-1" d="M38.93,23.26,37.1,18.84l2.84-2.24.18.23c-.68.53-.7.89-.32,1.36l3.42,4.36c.37.47.73.54,1.41,0l.17.22-3.38,2.66-.18-.22c.68-.54.7-.9.33-1.37L37.78,19l0,0,3,7.21-.7.54-6.29-4.48h0l3.74,4.73c.37.47.72.55,1.41,0l.18.22L36.9,29l-.17-.23c.68-.53.69-.89.32-1.37l-3.43-4.35c-.37-.47-.72-.54-1.4,0L32,22.82l3-2.32,3.92,2.78Z"/><path class="cls-1" d="M51.79,19l.13.25-3.75,1.94L48,20.89c.77-.4.7-.63.26-1.05l-.8-.76-1.83,1,.17,1.08c.1.59.26.78,1,.39l.13.25-2.14,1.11-.13-.25a1,1,0,0,0,.64-1.25l-1.18-7.25.79-.4,5.39,5.07A1,1,0,0,0,51.79,19Zm-4.72-.27L45.2,16.92h0l.4,2.53Z"/><path class="cls-1" d="M51.82,19c.82-.27,1-.61.78-1.18l-1.72-5.27c-.19-.57-.5-.76-1.32-.49l-.09-.27,3.75-1.22c2.19-.72,3.4-.32,3.9,1.22a2.42,2.42,0,0,1-1.81,3.1,4.2,4.2,0,0,1-1.39.21l.68,2.07c.18.57.49.76,1.31.49l.09.27-4.09,1.34Zm3.12-6.5c-.37-1.13-1-1.59-1.64-1.38a1.33,1.33,0,0,0-.56.37l1,3.08a1.07,1.07,0,0,0,.73,0C55.1,14.35,55.29,13.54,54.94,12.48Z"/><path class="cls-1" d="M61.47,8.89c-.85.15-1,.46-.93,1l.94,5.29c.12.66.3.73.93.62l.86-.16c.59-.1.89-.63,1-2.18l.28,0-.17,2.13,0,.4-5.8,1-.05-.28c.85-.15,1-.46.93-1l-1-5.45c-.1-.59-.38-.82-1.23-.67l-.05-.28,4.23-.75Z"/><path class="cls-1" d="M70.51,8.28l.3,1.7-.28,0c-.22-1.23-.55-1.58-1.15-1.55l-1.73.07.13,2.9.81,0c.6,0,.87-.3.83-1.25h.28l.12,3h-.28c0-.95-.33-1.19-.93-1.16l-.81,0,.11,2.74c0,.46.1.55.49.54l1.44-.07c.6,0,1-.5,1.3-2l.27.06-.46,2-.08.39L64.76,16v-.29c.86,0,1.09-.32,1.06-.92l-.23-5.53c0-.59-.27-.86-1.13-.82l0-.29,6-.25Z"/><path class="cls-1" d="M78.83,13.82,80.75,10c.28-.53.27-.78-.59-.92l0-.28,2.39.37,0,.29a1,1,0,0,0-1.26.62l-3.35,6.55-.87-.14L75.73,9.25a1,1,0,0,0-1-1l0-.28,4.17.65-.05.28c-.85-.13-.93.11-.82.7l.77,4.2Z"/><path class="cls-1" d="M83.57,9.85l.08-.28,4.13,1.22-.08.28c-.83-.25-1.14-.05-1.31.52l-1.57,5.32c-.17.57,0,.9.81,1.14l-.08.28-4.13-1.22.09-.27c.82.24,1.13,0,1.3-.53L84.38,11C84.55,10.42,84.4,10.09,83.57,9.85Z"/><path class="cls-1" d="M95.9,14.5c-.79-.35-1.1-.19-1.35.35l-2.81,6.34-.81-.36-1-7.78-2.15,4.84c-.25.55-.14.9.65,1.25l-.12.26-2.51-1.12.11-.26c.79.35,1.12.19,1.36-.35l2.48-5.56a1.48,1.48,0,0,0-.87-.76l.11-.26L92,12.46l.67,5.11h0L94,14.63c.24-.55.15-.89-.64-1.25l.11-.26L96,14.24Z"/><path class="cls-1" d="M102,18.48,101.22,20l-.25-.12c.53-1.13.45-1.61,0-1.94l-1.45-.93L97.9,19.49l.68.44c.5.33.88.27,1.39-.54l.24.15L98.61,22l-.24-.15c.52-.8.42-1.17-.09-1.5L97.6,20l-1.48,2.31c-.25.39-.24.51.08.72l1.22.78c.5.32,1.08.14,2.2-.87l.18.21-1.54,1.4-.29.27-5.14-3.31.15-.24c.73.47,1.08.37,1.4-.14l3-4.65c.32-.51.27-.86-.45-1.33l.15-.24,5.06,3.25Z"/><path class="cls-1" d="M103.05,28.67l-.19.22-3.24-2.82.19-.22c.65.57,1,.52,1.4.07l1.51-1.74.91-3.67a1.2,1.2,0,0,0-.51-1.42l.19-.22,3.28,2.85-.18.22c-.66-.57-.78-.39-.93.2l-.64,2.55,0,0,2.36-1.05c.54-.24.7-.41,0-1l.18-.21,1.89,1.63-.19.22a1.18,1.18,0,0,0-1.47-.27l-3.37,1.51-1.51,1.73C102.4,27.75,102.4,28.11,103.05,28.67Z"/><path class="cls-1" d="M108.48,34.66l-.22.19-2.79-3.17.22-.19c.57.66.78.53,1.08,0l.54-1L106,29l-1,.43c-.55.23-.7.44-.12,1.09l-.22.18L103,28.88l.21-.18a1,1,0,0,0,1.37.32l6.74-2.91.58.67-3.6,6.46A1,1,0,0,0,108.48,34.66ZM107.59,30l1.26-2.25,0,0-2.35,1Z"/><path class="cls-1" d="M112.9,41.84l-.25.15-.46-.76c-.92-1.5-1.19-2-.33-3.12L113.3,36l-.08-.14-.11-.18L110.94,37c-.51.31-.63.66-.17,1.39l-.25.15-2.24-3.67.24-.14c.45.73.81.79,1.32.48l4.72-2.9c.51-.31.63-.66.17-1.39l.25-.15,2,3.34c1.16,1.88,1,3.05-.13,3.75-1.31.8-2.29,0-3.06-1.09l0,0a2.35,2.35,0,0,1-.36,2.68l-.58.9A1.2,1.2,0,0,0,112.9,41.84Zm.79-6.3a1.37,1.37,0,0,0,2.14.46c.87-.53,1-1.15.68-1.71a1.38,1.38,0,0,0-.48-.44l-2.45,1.5Z"/><path class="cls-1" d="M112.92,41.89c.32.81.66.93,1.22.71l5.16-2c.56-.22.73-.54.41-1.35l.27-.1,1.5,3.83c.7,1.79.71,4.08-2.18,5.21s-4.47-.62-5.14-2.34L112.66,42ZM118.46,46c2-.79,3-1.65,2.51-2.86a1.89,1.89,0,0,0-.5-.79l-6,2.33a2.06,2.06,0,0,0,.17.92C115.15,46.85,116.44,46.83,118.46,46Z"/><polygon class="cls-2" points="57.73 53.44 43.46 53.44 43.46 43.63 50.6 35.2 57.73 43.63 57.73 53.44"/><rect class="cls-3" x="57.74" y="43.63" width="36.43" height="9.81"/><polygon class="cls-4" points="50.6 35.2 57.73 43.63 94.17 43.63 85.97 35.44 50.6 35.2"/><circle class="cls-5" cx="49.97" cy="42.41" r="1.91"/><polygon class="cls-6" points="73.34 36.56 70.44 36.56 67.54 36.56 67.54 31.89 73.34 31.89 73.34 36.56"/><polygon class="cls-7" points="70.44 28.91 66.93 31.89 73.95 31.89 70.44 28.91"/><path class="cls-8" d="M71.41,32.81h.33a.47.47,0,0,1,.47.47v2.5a0,0,0,0,1,0,0H70.95a0,0,0,0,1,0,0v-2.5a.47.47,0,0,1,.47-.47Z"/><path class="cls-8" d="M69.14,32.81h.33a.47.47,0,0,1,.47.47v2.5a0,0,0,0,1,0,0H68.67a0,0,0,0,1,0,0v-2.5A.47.47,0,0,1,69.14,32.81Z"/><line class="cls-9" x1="57.74" y1="45.4" x2="78.19" y2="45.4"/><line class="cls-9" x1="81.39" y1="45.4" x2="94.17" y2="45.4"/><line class="cls-9" x1="57.74" y1="49.91" x2="78.19" y2="49.91"/><line class="cls-9" x1="80.55" y1="49.91" x2="94.17" y2="49.91"/><line class="cls-9" x1="73.71" y1="47.5" x2="94.17" y2="47.5"/><line class="cls-9" x1="57.74" y1="47.5" x2="71.03" y2="47.5"/><line class="cls-9" x1="72.38" y1="52.07" x2="94.17" y2="52.07"/><line class="cls-9" x1="57.74" y1="52.07" x2="69.94" y2="52.07"/><text class="cls-10" transform="translate(14.18 64.56)">W<tspan class="cls-11" x="5.97" y="0">E</tspan><tspan class="cls-12" x="9.42" y="0">DD</tspan><tspan class="cls-13" x="17.53" y="0">I</tspan><tspan class="cls-14" x="20.03" y="0">N</tspan><tspan x="23.83" y="0">G V</tspan><tspan class="cls-11" x="33.61" y="0">E</tspan><tspan x="37.06" y="0">N</tspan><tspan class="cls-15" x="41.13" y="0">U</tspan><tspan class="cls-13" x="45.26" y="0">E</tspan></text><text class="cls-16" transform="translate(73.93 64.56)">A<tspan class="cls-17" x="3.48" y="0">UG</tspan><tspan class="cls-18" x="11.5" y="0">U</tspan><tspan class="cls-19" x="15.45" y="0">S</tspan><tspan class="cls-20" x="18.22" y="0">T </tspan><tspan class="cls-21" x="23.33" y="0">2</tspan><tspan class="cls-13" x="26.3" y="0">0</tspan><tspan class="cls-22" x="29.87" y="0">t</tspan><tspan class="cls-20" x="32.02" y="0">h, </tspan><tspan class="cls-23" x="38.51" y="0">2</tspan><tspan class="cls-24" x="41.49" y="0">0</tspan><tspan class="cls-21" x="44.98" y="0">2</tspan><tspan class="cls-13" x="47.95" y="0">1</tspan></text><polygon class="cls-1" points="59.02 28.05 59.87 25.85 60.73 28.05 62.93 28.91 60.73 29.77 59.87 31.96 59.02 29.77 56.82 28.91 59.02 28.05"/><polygon class="cls-1" points="72.73 21.63 73.16 20.53 73.59 21.63 74.69 22.06 73.59 22.48 73.16 23.58 72.73 22.48 71.63 22.06 72.73 21.63"/><polygon points="68.68 62.61 69.11 61.51 69.54 62.61 70.64 63.03 69.54 63.46 69.11 64.56 68.68 63.46 67.58 63.03 68.68 62.61"/><polygon class="cls-1" points="96.59 38.36 97.25 36.66 97.92 38.36 99.62 39.03 97.92 39.69 97.25 41.39 96.59 39.69 94.89 39.03 96.59 38.36"/><polygon class="cls-1" points="42.8 33.73 43.46 32.03 44.13 33.73 45.83 34.39 44.13 35.06 43.46 36.76 42.8 35.06 41.1 34.39 42.8 33.73"/><polygon class="cls-1" points="34.67 45.54 35.1 44.44 35.53 45.54 36.63 45.97 35.53 46.4 35.1 47.5 34.67 46.4 33.57 45.97 34.67 45.54"/><polygon class="cls-1" points="87.35 27.93 87.78 26.83 88.21 27.93 89.31 28.36 88.21 28.79 87.78 29.89 87.35 28.79 86.25 28.36 87.35 27.93"/><polygon class="cls-1" points="102.15 47.7 103.01 45.5 103.86 47.7 106.06 48.56 103.86 49.41 103.01 51.61 102.15 49.41 99.95 48.56 102.15 47.7"/></g></g></svg>