<?xml version="1.0" encoding="utf-8"?>
<!-- Generator: Adobe Illustrator 24.3.0, SVG Export Plug-In . SVG Version: 6.00 Build 0)  -->
<svg version="1.1" id="Layer_1" xmlns="http://www.w3.org/2000/svg" xmlns:xlink="http://www.w3.org/1999/xlink" x="0px" y="0px"
	 viewBox="0 0 209.2 209.2" style="enable-background:new 0 0 209.2 209.2;" xml:space="preserve">
<style type="text/css">
	.st0{fill:#2D2929;}
	.st1{enable-background:new    ;}
	.st2{fill:#FFFFFF;}
	.st3{fill:#CCC4B7;}
	.st4{fill:#C8A386;}
	.st5{fill:#D43B2A;}
	.st6{fill:#B3A792;}
	.st7{fill:#BB2324;}
	.st8{fill:#AC5642;}
	.st9{fill:#F0F0F0;}
	.st10{fill:none;stroke:#7A4D29;stroke-width:0.46;stroke-miterlimit:10;}
</style>
<g id="Layer_2_1_">
	<g id="Layer_1-2">
		<circle class="st0" cx="104.8" cy="104.2" r="79.3"/>
		<g class="st1">
			<path class="st2" d="M46.2,99.6c1.6-0.1,3.1-0.3,4.8-1l0.2,4.9c-1.7-0.5-3.3-0.6-4.8-0.6l-9,0.5l14.1,4l0.1,1.7l-13.8,5.4
				l9.2-0.5c1.6-0.1,3.1-0.3,4.8-1l0.2,2.9c-1.7-0.5-3.3-0.6-4.8-0.5l-10.2,0.5c-1.5,0.1-2.8,0.3-3.9,1l-0.3-5.6
				c0.3,0.2,0.8,0.3,1.4,0.2c0.9,0,2-0.3,3-0.7l9.4-3.5l-9.7-2.5c-0.9-0.2-2-0.4-2.9-0.3c-0.6,0-1.2,0.1-1.4,0.4L32,99.6
				c1.1,0.6,2.5,0.7,4,0.6L46.2,99.6z"/>
		</g>
		<g class="st1">
			<path class="st2" d="M53.4,89.9c-0.3-0.3-1-0.6-1.8-0.8c-0.8-0.2-1.6-0.3-2.4-0.3l-1.8,0l-1.1,4.5l1.6,0.9
				c0.6,0.4,1.4,0.7,2.1,0.9c0.9,0.2,1.7,0.3,2.2,0.1l-0.9,3.6c-0.8-1.2-2.1-2.2-3.8-3.3l-12.9-8.1l0.4-1.7L50,84.8
				c1.9-0.1,3.5-0.3,4.9-0.9L53.4,89.9z M46.3,88.8l-7.5,0.1l6.5,3.8L46.3,88.8z"/>
		</g>
		<g class="st1">
			<path class="st2" d="M62,71.8l-2.3,4.1l-6.3-1.5c-1.3-0.3-1.9-0.2-2.2,0.2c-0.3,0.4-0.6,1-0.9,1.5l2.7,1.6
				c1.4,0.8,2.9,1.3,4.6,1.7l-2.6,4.6c-1.2-1.4-2.5-2.3-3.9-3.1l-8-4.5c-1.4-0.8-2.8-1.4-4.6-1.7l3.3-5.7c1.5-2.6,4-4.8,7.5-2.8
				c2.3,1.3,2.8,3.6,2.7,5.2c0.7-0.9,1.3-0.9,2.8-0.6l3.9,0.9C59.8,71.8,60.8,71.9,62,71.8z M49.7,75c1.2-2.1,1.3-3.6-1.8-5.3
				c-2.5-1.4-4.6-1.2-5.6,0.6c-0.2,0.3-0.3,0.6-0.5,0.9c1.1,0.6,2.1,1.3,3.2,1.9l4.4,2.5L49.7,75z"/>
		</g>
		<g class="st1">
			<path class="st2" d="M64.2,55.9l6.2,6.1c-0.4,1.6-1.4,3.4-2.8,4.9c-3.2,3.3-8.1,2.7-12.2-1.3c-4.5-4.4-4.6-9.8-1-13.5
				c1.3-1.4,2.4-2,3.3-2.4l3,4.5c-3-0.8-5.1-0.7-6.4,0.6c-1.6,1.6-0.9,3.7,2.3,6.9c3.8,3.8,8.7,4.8,10.8,2.6
				c0.2-0.2,0.3-0.3,0.4-0.5c-3-3-5.3-4.3-7.4-4.2L64.2,55.9z"/>
		</g>
		<g class="st1">
			<path class="st2" d="M67.3,53.4c-2.9-5.1-2.1-10,1.9-12.3c3.9-2.2,8.5-0.1,11.3,5c2.9,5.2,2.2,10.1-1.8,12.3
				C74.8,60.7,70.1,58.4,67.3,53.4z M78,49.8c-2.8-5-6.4-8.2-8.7-6.8c-1.7,1-1.5,3.2,0.5,6.8c2.8,4.9,6.3,8.3,8.8,6.9
				C80.4,55.7,80,53.3,78,49.8z"/>
		</g>
		<g class="st1">
			<path class="st2" d="M97.7,51.7c0.2-0.4,0.2-1.2,0-2c-0.1-0.8-0.4-1.6-0.7-2.3l-0.8-1.6l-4.6,0.7l-0.2,1.8
				c-0.1,0.7-0.1,1.5,0,2.2c0.1,0.9,0.4,1.7,0.7,2.1l-3.7,0.6c0.8-1.2,1.2-2.8,1.5-4.8l2.3-15.2l1.7-0.3l6.9,13.7
				c0.9,1.7,1.7,3.1,2.8,4.1L97.7,51.7z M95.8,44.8L92.7,38l-0.9,7.5L95.8,44.8z"/>
		</g>
		<g class="st1">
			<path class="st2" d="M119.2,33.5c-0.8,1.6-1.2,3.1-1.3,4.7l-1.5,14L114,52l-6.6-13.9l-0.9,8.3c-0.2,1.6-0.1,3.1,0.3,4.9l-3-0.3
				c0.8-1.6,1.2-3.1,1.3-4.7l1.1-10c0.2-1.4,0.1-3-0.4-4.1l4.4,0.5c-0.1,0.2-0.2,0.5-0.3,0.8c-0.1,0.6,0.2,1.3,0.6,2.1l4.9,10.8
				l0.9-8.1c0.2-1.6,0.1-3.1-0.3-4.9L119.2,33.5z"/>
		</g>
		<g class="st1">
			<path class="st2" d="M134.7,48.5c-2.4,6-7,7.8-11.3,6.1l-5.4-2.1c1.2-1.4,1.9-2.8,2.5-4.2l3.4-8.6c0.6-1.6,1-3.3,1.1-4.8l5.6,2.2
				C134.4,38.6,137.1,42.4,134.7,48.5z M130.8,47.8c1.8-4.6,1.8-8.6-1.4-9.9l-0.7-0.3c-0.5,1.2-1,2.2-1.4,3.4l-3.4,8.6
				c-0.4,1.1-0.9,2.3-1.2,3.5c0.3,0.1,0.5,0.2,0.8,0.4C126.9,54.8,129.2,51.8,130.8,47.8z"/>
		</g>
		<g class="st1">
			<path class="st2" d="M152.6,52.1l-8.5,9.8c-1,1.2-1.9,2.5-2.5,4.2l-4.1-3.5c1.6-0.8,2.8-1.9,3.8-3.1l8.5-9.8
				c-2-1.7-3.6-1.5-6.8,0.2l3.9-4.3l10.2,8.8l-3.7,4.4C154.8,55.3,154.6,53.8,152.6,52.1z"/>
		</g>
		<g class="st1">
			<path class="st2" d="M168.3,69.6c-1.1-0.3-3-0.3-4.4,0l-7.7,1.3l-2.8,1.9c-1.3,0.9-2.5,2-3.5,3.4l-3-4.3c1.7-0.5,3.1-1.3,4.4-2.2
				l2.8-1.9l3.8-6.7c0.7-1.3,1.6-3,1.7-4.1l3.4,5c-0.3,0-0.7,0.2-1,0.4c-0.6,0.4-1.2,1.1-1.7,1.9l-3.3,5.3l6-1.3
				c0.9-0.2,1.8-0.6,2.4-1c0.3-0.2,0.6-0.5,0.7-0.8L168.3,69.6z"/>
		</g>
		<g class="st1">
			<path class="st2" d="M161.2,88.6l-4.9,1.8l-3.9-10.1c1.8-0.1,3.3-0.5,4.8-1.1l8.6-3.3c1.5-0.6,2.9-1.3,4.2-2.5l1.8,4.7
				c-1.8,0.2-3.3,0.6-4.8,1.2l-8.6,3.3c-1.1,0.4-2.2,0.9-3.3,1.5l0.2,0.4C156.4,87.1,158.4,88.3,161.2,88.6z"/>
		</g>
		<g class="st1">
			<path class="st2" d="M163.4,101.8l-5.1,0.9l-1.7-11.4c1.8,0.3,3.4,0.3,4.9,0.1l9.1-1.3c1.6-0.2,3.1-0.6,4.7-1.5l1.7,11.4
				l-5.1,0.6c2.1-1.7,3.3-3.5,3-7.1l0-0.3c-1.3,0.1-2.5,0.3-3.6,0.5l-3.7,0.5l0.1,0.4c0.3,2.1,1,3.4,3,4.8l-5.7,0.8
				c1.4-1.8,1.9-3.3,1.5-5.4l-0.1-0.4l-4.2,0.6c-1.2,0.2-2.4,0.4-3.6,0.7l0,0.1C159.1,99.6,160.8,100.7,163.4,101.8z"/>
		</g>
		<g class="st1">
			<path class="st2" d="M157,117.3l0.5-4.7l6.3-1.2c1.3-0.2,1.8-0.5,1.9-1c0.1-0.5,0.1-1.2,0.2-1.7l-3.1-0.3
				c-1.6-0.2-3.2-0.1-4.9,0.3l0.5-5.2c1.6,0.8,3.2,1.1,4.7,1.2l9.1,0.9c1.6,0.2,3.2,0.2,4.9-0.3l-0.7,6.5c-0.3,3-1.7,6-5.7,5.6
				c-2.6-0.3-4-2.1-4.6-3.7c-0.3,1.1-0.8,1.4-2.3,1.7l-3.9,0.8C158.9,116.4,158,116.7,157,117.3z M166.8,109.4
				c-0.2,2.4,0.3,3.8,3.8,4.1c2.9,0.3,4.6-0.8,4.8-2.8c0-0.3,0.1-0.7,0.1-1c-1.2-0.2-2.5-0.3-3.7-0.4l-5-0.5L166.8,109.4z"/>
		</g>
		<g class="st1">
			<path class="st2" d="M168.8,135.3L157,130c-1.4-0.6-3-1.1-4.8-1.2l2.2-4.9c1.3,1.3,2.6,2.1,4.1,2.8l11.8,5.3
				c1.1-2.4,0.4-3.8-2.2-6.5l5.2,2.5l-5.5,12.3l-5.3-2.3C166.3,138.3,167.7,137.7,168.8,135.3z"/>
		</g>
		<g class="st1">
			<path class="st2" d="M153.5,136.2l7.6,5.2c1.3,0.9,2.7,1.7,4.5,2.1l-3,4.3c-1-1.5-2.3-2.5-3.6-3.4l-7.6-5.2
				c-1.3-0.9-2.7-1.7-4.4-2.1l3-4.3C151,134.3,152.2,135.3,153.5,136.2z"/>
		</g>
		<g class="st1">
			<path class="st2" d="M141.9,150.1l-3.8-3.6l8.2-8.2c0.8,1.6,1.8,2.9,2.9,4l6.5,6.5c1.1,1.1,2.4,2.1,4,2.9l-8.2,8.2l-3.6-3.8
				c2.6,0.7,4.8,0.6,7.5-1.9l0.2-0.2c-0.8-1-1.7-1.8-2.5-2.7l-2.6-2.6l-0.3,0.3c-1.5,1.5-2.2,2.9-2.1,5.3l-4.1-4.1
				c2.3,0.1,3.8-0.5,5.3-2l0.3-0.3l-3-3c-0.8-0.8-1.7-1.7-2.7-2.5l-0.1,0.1C141.1,145.3,141.2,147.4,141.9,150.1z"/>
		</g>
		<g class="st1">
			<path class="st2" d="M135.7,168.6l-5.9-11.5c-0.7-1.4-1.6-2.7-3-3.9l4.8-2.5c0.2,1.8,0.7,3.3,1.5,4.7l5.9,11.5
				c2.3-1.2,2.7-2.7,2.3-6.4l2.5,5.2l-12,6.2l-2.7-5.1C132,169.4,133.4,169.8,135.7,168.6z"/>
		</g>
		<g class="st1">
			<path class="st2" d="M111.1,162.8c-0.3-1.5-0.8-3.1-1.8-4.6l5-1.1c-0.2,1.8,0.1,3.4,0.4,4.9l1,4.5l5.1-1.1l-1-4.5
				c-0.3-1.5-0.8-3.1-1.8-4.6l5.1-1.1c-0.2,1.8,0,3.4,0.3,4.9l2,9c0.3,1.5,0.9,3.1,1.8,4.6l-5,1.1c0.3-1.8,0-3.4-0.4-4.9l-0.8-3.6
				l-5.1,1.1l0.8,3.6c0.3,1.5,0.8,3.1,1.7,4.6l-5,1.1c0.2-1.8,0-3.4-0.3-4.9L111.1,162.8z"/>
		</g>
		<g class="st1">
			<path class="st2" d="M96.7,162.9l0.1-5.2l11.5,0.4c-0.6,1.7-0.9,3.3-1,4.8l-0.3,9.2c-0.1,1.6,0.1,3.2,0.6,4.9l-11.6-0.4l0.3-5.2
				c1.3,2.4,2.8,3.9,6.5,4.2l0.3,0c0.1-1.2,0.2-2.5,0.2-3.7l0.1-3.7l-0.4,0c-2.2-0.1-3.6,0.4-5.2,2.1l0.2-5.8
				c1.5,1.7,2.9,2.4,5.1,2.5l0.4,0l0.2-4.3c0-1.2,0.1-2.4,0-3.7l-0.1,0C99.7,159,98.2,160.5,96.7,162.9z"/>
		</g>
		<g class="st1">
			<path class="st2" d="M78.8,151.8l4.5,1.7l-0.5,8.7c0,0.6,0.1,0.9,0.3,1.1l2.5-1.7l0.7-1.8c0.6-1.5,1-3,1-4.8l4.9,1.9
				c-1.2,1.4-1.9,2.8-2.4,4.3l-3.2,8.6c-0.6,1.5-1,3-1,4.8l-5-1.9c1.2-1.4,1.9-2.8,2.5-4.3l2-5.3l-5.5,4.1c-1.8,1.3-2.6,2.4-3.1,4
				l-4.1-1.5c2.1-0.7,4-1.8,6.4-3.4l3.4-2.2l-1.7-0.7c-0.9-0.3-1.6-0.8-1.6-1.5l0.4-6.2C79.3,154.2,79.2,153,78.8,151.8z"/>
		</g>
		<g class="st1">
			<path class="st2" d="M56.9,159.3c1.5-1,2.6-2.1,3.5-3.4l8.2-11.5l1.9,1.4l-1.1,15.3l4.8-6.7c0.9-1.3,1.7-2.6,2.2-4.4l2.5,1.8
				c-1.5,1-2.5,2.1-3.5,3.4l-5.9,8.2c-0.9,1.2-1.6,2.5-1.7,3.8l-3.6-2.6c0.2-0.1,0.4-0.3,0.6-0.5c0.4-0.5,0.5-1.2,0.5-2.1l1-11.8
				l-4.8,6.6c-0.9,1.3-1.7,2.6-2.2,4.4L56.9,159.3z"/>
		</g>
		<g class="st1">
			<path class="st2" d="M59.7,149.2c-4.6,3.6-9.6,3.6-12.4,0c-2.7-3.5-1.4-8.4,3.2-12c4.7-3.7,9.7-3.7,12.5-0.1
				C65.8,140.7,64.3,145.7,59.7,149.2z M54.5,139.2c-4.6,3.6-7.1,7.5-5.5,9.7c1.2,1.6,3.4,1,6.7-1.5c4.5-3.5,7.3-7.5,5.5-9.7
				C60,136,57.7,136.7,54.5,139.2z"/>
		</g>
		<g class="st1">
			<path class="st2" d="M38.3,130.2l11.9-5c1.5-0.6,2.9-1.4,4.2-2.7l2.1,5c-1.8,0-3.4,0.5-4.8,1.1l-11.9,5c1,2.4,2.5,2.9,6.2,2.9
				l-5.4,2.1l-5.2-12.5l5.3-2.3C37.8,126.4,37.3,127.8,38.3,130.2z"/>
		</g>
		<g class="st1">
			<path class="st2" d="M63.5,101l1.9,0.2c0.1-1.2-0.2-2-0.9-2.6l3,0.3c-0.8,0.5-1.3,1.2-1.5,2.4l1.9,0.2c0.8,0.1,1.5,0.1,2.4-0.1
				l-0.2,2.5c-0.8-0.4-1.5-0.5-2.3-0.6l-4.4-0.4c-0.8-0.1-1.5-0.1-2.4,0.1l0.5-5.4l2.5,0.3c-1.2,0.5-2,1.4-2.2,2.9l0,0
				C62.3,100.9,62.9,100.9,63.5,101z"/>
		</g>
		<g class="st1">
			<path class="st2" d="M72.5,91.5l-0.6,2.2l-3.1,0c-0.6,0-0.9,0.1-1,0.3c-0.1,0.2-0.2,0.5-0.2,0.8l1.5,0.4c0.7,0.2,1.5,0.3,2.4,0.3
				L70.6,98c-0.7-0.5-1.4-0.8-2.2-1l-4.3-1.2c-0.7-0.2-1.5-0.4-2.4-0.3l0.9-3c0.4-1.4,1.4-2.7,3.2-2.2c1.2,0.4,1.7,1.4,1.9,2.2
				c0.2-0.5,0.5-0.6,1.3-0.6l1.9,0C71.5,91.7,71.9,91.7,72.5,91.5z M67.1,94.4c0.3-1.1,0.2-1.8-1.4-2.3c-1.3-0.4-2.3,0-2.5,0.9
				c0,0.1-0.1,0.3-0.1,0.5c0.6,0.2,1.2,0.4,1.7,0.5l2.3,0.7L67.1,94.4z"/>
		</g>
		<g class="st1">
			<path class="st2" d="M70.7,90l-4-1.9c-0.7-0.3-1.4-0.6-2.3-0.6l1.1-2.3c0.6,0.6,1.3,1,2,1.3l4,1.9c0.7,0.3,1.4,0.6,2.3,0.6
				l-1.1,2.3C72.1,90.7,71.4,90.3,70.7,90z"/>
		</g>
		<g class="st1">
			<path class="st2" d="M73.7,80.1c2.6,1.7,3,4.1,1.7,5.9l-1.5,2.3c-0.5-0.7-1.1-1.2-1.7-1.6l-3.7-2.4c-0.7-0.4-1.4-0.8-2.2-1
				l1.6-2.4C69,79.3,71.1,78.4,73.7,80.1z M73,81.9c-2-1.3-3.9-1.7-4.8-0.3L68,81.8c0.5,0.4,1,0.7,1.4,1l3.7,2.4
				c0.5,0.3,1,0.6,1.5,0.9c0.1-0.1,0.2-0.2,0.2-0.3C75.9,84.4,74.7,83,73,81.9z"/>
		</g>
		<g class="st1">
			<path class="st2" d="M80.6,79.8c-0.1-0.2-0.3-0.5-0.6-0.8c-0.3-0.3-0.6-0.5-0.9-0.7l-0.8-0.4l-1.6,1.6l0.4,0.8
				c0.2,0.3,0.4,0.6,0.7,0.9c0.3,0.3,0.7,0.5,0.9,0.6L77.5,83c-0.1-0.7-0.3-1.4-0.8-2.3l-3.4-6.5l0.6-0.6l6.6,3.3
				c0.8,0.4,1.5,0.7,2.3,0.8L80.6,79.8z M77.9,77.6l-3.1-1.8l1.8,3.1L77.9,77.6z"/>
		</g>
		<g class="st1">
			<path class="st2" d="M82.2,66.9c-0.1,0.5-0.1,1.5,0,2.1l0.7,3.7l1,1.3c0.4,0.6,1,1.2,1.7,1.7l-2,1.5c-0.2-0.8-0.6-1.5-1.1-2.1
				l-1-1.3L78.2,72c-0.6-0.3-1.5-0.8-2-0.8l2.4-1.7c0,0.2,0.1,0.3,0.2,0.5c0.2,0.3,0.6,0.6,0.9,0.8l2.6,1.5l-0.6-2.9
				c-0.1-0.4-0.3-0.9-0.5-1.2c-0.1-0.2-0.3-0.3-0.4-0.3L82.2,66.9z"/>
		</g>
		<g class="st1">
			<path class="st2" d="M87.3,75.3c-0.3-0.5-0.7-0.9-1.2-1.1c0.4-0.6,0.7-1.2,1-1.8c0.4,0.2,0.7,0.6,0.9,0.9
				c0.6,1.1,0.4,2.5-0.4,3.1C87.6,76,87.5,75.6,87.3,75.3z"/>
		</g>
		<g class="st1">
			<path class="st2" d="M94.3,71.6c0-0.2,0-0.6-0.1-0.9c-0.1-0.4-0.3-0.7-0.5-1.1l-0.5-0.7l-2.1,0.7l0,0.9c0,0.4,0.1,0.7,0.2,1.1
				c0.1,0.4,0.3,0.8,0.5,0.9L90.1,73c0.3-0.7,0.3-1.4,0.3-2.4l-0.1-7.4l0.8-0.3l4.4,6c0.5,0.7,1,1.3,1.7,1.7L94.3,71.6z M92.9,68.5
				l-2-3l0.2,3.6L92.9,68.5z"/>
		</g>
		<g class="st1">
			<path class="st2" d="M102.5,60.9c-0.2,0.8-0.2,1.6-0.1,2.3l0.5,4.1c0.1,1.2-0.2,2.9-2.6,3.2c-2.3,0.3-3-1.3-3.2-2.5l-0.5-4.1
				c-0.1-0.8-0.3-1.5-0.7-2.2l2.5-0.3c-0.2,0.8-0.1,1.6-0.1,2.3l0.5,4.1c0.1,1.2,0.8,1.8,1.9,1.6c1-0.1,1.5-0.8,1.4-2l-0.5-4.1
				c-0.1-0.8-0.2-1.5-0.7-2.2L102.5,60.9z"/>
		</g>
		<g class="st1">
			<path class="st2" d="M110.9,65.8l-0.3,4.2c-0.7,0.4-1.7,0.5-2.7,0.5c-2.2-0.2-3.5-2.2-3.3-4.9c0.2-3,2.2-4.7,4.7-4.5
				c0.9,0.1,1.5,0.3,1.9,0.5l-0.7,2.5c-0.6-1.3-1.3-2.1-2.2-2.2c-1.1-0.1-1.6,0.8-1.8,3c-0.2,2.6,0.9,4.7,2.4,4.8c0.1,0,0.2,0,0.3,0
				c0.2-2,0-3.3-0.7-4L110.9,65.8z"/>
		</g>
		<g class="st1">
			<path class="st2" d="M120.1,63.6c-0.5,0.7-0.8,1.4-1,2.1l-1.2,4c-0.3,1.2-1.3,2.6-3.6,1.9c-2.2-0.7-2.3-2.4-1.9-3.6l1.2-4
				c0.2-0.7,0.3-1.5,0.3-2.3l2.4,0.7c-0.5,0.7-0.8,1.4-1,2.1l-1.2,3.9c-0.3,1.2,0.1,2,1.1,2.3c1,0.3,1.7-0.2,2.1-1.3l1.2-3.9
				c0.2-0.7,0.4-1.5,0.2-2.3L120.1,63.6z"/>
		</g>
		<g class="st1">
			<path class="st2" d="M125.4,66.7l-2.9,5.5c-0.3,0.7-0.6,1.4-0.7,2.3l-2.3-1.2c0.7-0.6,1.1-1.2,1.5-1.9l2.9-5.5
				c-1.1-0.6-1.8-0.3-3.2,0.9l1.3-2.4l5.8,3l-1.2,2.5C126.7,68,126.5,67.3,125.4,66.7z"/>
		</g>
		<g class="st1">
			<path class="st2" d="M129.2,70.5c-0.4,0.5-0.3,1.1,0.1,2.4l0.4,1.2c0.3,0.9,0.5,1.9-0.2,2.7c-1,1.3-2.8,1.4-4,0.5
				c-1-0.8-1.4-2.2-0.9-3.6l1.7,0.2c-0.6,1.7-0.4,2.7,0.2,3.1c0.5,0.4,1,0.3,1.4-0.1c0.4-0.5,0.5-1,0.1-2l-0.6-1.6
				c-0.4-1-0.6-1.9,0.1-2.8c0.9-1.2,2.7-1.4,4.4-0.1c0.5,0.4,1,0.9,1.3,1.3l-2,2c0.2-1.2,0-2.6-0.8-3.3
				C130.1,70,129.5,70.1,129.2,70.5z"/>
		</g>
		<g class="st1">
			<path class="st2" d="M137.3,76.3l-4.6,4.2c-0.6,0.5-1.1,1.1-1.5,1.9l-1.8-1.9c0.8-0.3,1.5-0.8,2-1.3l4.6-4.2
				c-0.8-0.9-1.6-0.9-3.3-0.3l2.1-1.8l4.4,4.8l-2,1.9C138.1,78,138.1,77.3,137.3,76.3z"/>
		</g>
		<g class="st1">
			<path class="st2" d="M138.3,89.6l-2.1,0.8l-2.7-5l2.4,0.5c3.2,0.6,4,0.5,5.5-0.2c0.9-0.5,1.5-1.2,1.1-2c-0.3-0.6-1-0.7-1.7-0.4
				c-0.4,0.2-0.8,0.6-1.2,1.1l-0.8-1.7l0.5-0.3c1.7-0.9,3.2,0,3.9,1.3c0.8,1.4,0.5,2.8-0.8,3.6c-1.3,0.7-2.7,0.4-5.8-0.5l-0.8-0.2
				C137,88.7,137.5,89.3,138.3,89.6z"/>
		</g>
		<g class="st1">
			<path class="st2" d="M140.9,89.6c2.7-0.8,4.9-0.1,5.6,1.9c0.6,2-0.9,3.8-3.5,4.6c-2.7,0.8-4.9,0.1-5.5-1.9
				C136.8,92.3,138.3,90.4,140.9,89.6z M141.8,94.5c2.8-0.9,4.2-2.1,3.9-3.1c-0.3-0.9-1.6-0.8-3.6-0.2c-2.8,0.9-4.2,2.1-3.9,3.1
				C138.5,95.2,139.9,95.1,141.8,94.5z"/>
		</g>
		<g class="st1">
			<path class="st2" d="M148.5,98.7l-3.6,0.5c-0.4,0.1-0.9,0.2-1.3,0.4l-0.2-1.5c0.5,0.1,0.9,0.1,1.4,0l3.6-0.5
				c-0.1-0.7-0.5-1-1.5-1.2l1.6-0.2l0.5,3.7l-1.6,0.3C148.3,99.8,148.6,99.5,148.5,98.7z"/>
		</g>
		<g class="st1">
			<path class="st2" d="M145.2,105.1c-0.4,0-0.9,0.1-1.4,0.3l0-1.4c0.5,0.2,0.9,0.2,1.4,0.1l1.3,0l0-1.4l-1.3,0
				c-0.4,0-0.9,0-1.4,0.2l0-1.4c0.5,0.1,0.9,0.2,1.4,0.2l2.6-0.1c0.4,0,0.9-0.1,1.4-0.3l0,1.4c-0.5-0.2-0.9-0.2-1.4-0.2l-1,0l0,1.4
				l1,0c0.4,0,0.9,0,1.4-0.2l0,1.4c-0.5-0.2-0.9-0.2-1.4-0.2L145.2,105.1z"/>
		</g>
		<g class="st1">
			<path class="st2" d="M140.5,113.1l-2.1-0.6l0.9-5.6l1.6,1.8c2.2,2.4,2.9,2.9,4.5,3.1c1,0.2,1.9-0.1,2.1-0.9
				c0.1-0.7-0.4-1.2-1.1-1.3c-0.4-0.1-1,0-1.6,0.2l0.5-1.8l0.5,0.1c1.9,0.3,2.5,1.9,2.3,3.4c-0.2,1.6-1.3,2.6-2.8,2.3
				c-1.4-0.2-2.4-1.3-4.3-3.9l-0.5-0.7C140,111.7,140,112.4,140.5,113.1z"/>
		</g>
		<g class="st1">
			<path class="st2" d="M142.6,114.8c2.7,1,4,2.9,3.3,4.9c-0.7,2-3,2.5-5.6,1.5c-2.7-1-4-2.9-3.3-4.8
				C137.7,114.3,140,113.8,142.6,114.8z M140.3,119.2c2.8,1,4.6,0.9,4.9-0.1c0.3-0.9-0.8-1.6-2.7-2.3c-2.8-1-4.6-0.9-5,0.1
				C137.2,117.8,138.4,118.5,140.3,119.2z"/>
		</g>
		<g class="st1">
			<path class="st2" d="M134.6,126l-1.7-1.4l2.9-4.9l0.8,2.3c1.1,3.1,1.6,3.8,3,4.6c0.8,0.5,1.8,0.7,2.3-0.1
				c0.4-0.6,0.1-1.2-0.5-1.6c-0.4-0.2-0.9-0.4-1.5-0.5l1.1-1.5l0.5,0.3c1.6,1,1.6,2.8,0.9,4c-0.8,1.4-2.2,1.9-3.5,1.1
				c-1.3-0.8-1.7-2.1-2.5-5.3l-0.2-0.8C134.7,124.5,134.5,125.2,134.6,126z"/>
		</g>
		<g class="st1">
			<path class="st2" d="M133.8,127.2l3.1,2.5c0.7,0.6,1.1,0.8,1.9,0.9c-0.2,0.7-0.5,1.6-0.6,2.4l-5.4-4.4c-0.7-0.6-1.2-0.9-2.1-1.1
				l1.6-2C132.6,126.2,133.1,126.6,133.8,127.2z"/>
		</g>
		<g class="st1">
			<path class="st2" d="M129.4,127.9c0.4,0.4,1,0.7,1.5,0.7c-0.2,0.7-0.3,1.3-0.5,2c-0.4-0.1-0.8-0.3-1.1-0.6
				c-0.9-0.9-1.1-2.3-0.5-3.1C128.9,127.3,129.1,127.6,129.4,127.9z"/>
		</g>
		<g class="st1">
			<path class="st2" d="M122.4,144.9c0.1-0.8,0.1-1.5-0.2-2.4l-2.2-6.9l0.9-0.5l5,4.3l-1.6-6.5l0.8-0.5l5.2,5c0.6,0.6,1.2,1.1,2,1.3
				l-2.6,1.6c0-0.2-0.1-0.5-0.3-0.8c-0.2-0.3-0.5-0.7-0.8-1l-3.3-3.5l1.3,5.1c0.6,0.5,1.1,0.9,1.7,1.1l-2.6,1.6
				c0-0.2-0.1-0.5-0.3-0.8c-0.2-0.3-0.5-0.6-0.8-1l-3.5-3.4l1.6,4.6c0.1,0.3,0.3,0.7,0.5,1c0.2,0.4,0.5,0.7,0.7,0.8L122.4,144.9z"/>
		</g>
		<g class="st1">
			<path class="st2" d="M113.8,141.6l3.5-1.1c-0.5-1.2-1.3-1.9-2.7-1.4c-0.6,0.2-0.9,0.5-1.3,0.9c-0.1-0.9,0.3-2.1,1.7-2.6
				c1.7-0.5,3.3,0.5,4,2.5c0.6,1.9,0.2,3.9-1.7,4.5c-1.6,0.5-2.7-0.4-3.1-1.8L113.8,141.6z M115.8,142c0.5,1.4,1,1.8,1.5,1.7
				c0.6-0.2,0.8-1,0.3-2.5l-0.1-0.3l-1.4,0.4C115.7,141.5,115.6,141.5,115.8,142z"/>
		</g>
		<g class="st1">
			<path class="st2" d="M111.9,144.3c-0.1-0.5-0.6-0.7-1.6-1.1l-0.9-0.3c-0.6-0.2-1.4-0.7-1.5-1.7c-0.2-1.3,0.7-2.4,2-2.6
				c1.2-0.2,2.2,0.4,2.8,1.2l-1.1,1.2c-0.9-1.2-1.6-1.6-2.3-1.5c-0.4,0.1-0.6,0.3-0.6,0.7c0.1,0.4,0.4,0.7,1.2,1l1.2,0.5
				c0.8,0.3,1.6,0.7,1.7,1.6c0.2,1.2-0.7,2.3-2.5,2.6c-0.6,0.1-1.2,0.1-1.6,0l-0.1-2.3c0.7,0.9,1.7,1.5,2.5,1.4
				C111.7,144.9,112,144.7,111.9,144.3z"/>
		</g>
		<g class="st1">
			<path class="st2" d="M104.3,140.4c-0.3,0-0.6,0.2-0.9,0.4c0-0.9,0.7-1.8,1.8-1.8c0.9,0,1.5,0.5,1.5,1.9l0.1,4.8l0.8,0l-0.1,0.5
				l-0.7,0c0,0.3,0,0.7,0.1,1.1c-0.6,0.3-1.2,0.6-1.8,0.9l0-2l-1.6,0l0.1-0.5l1.5,0l-0.1-4.2C105.1,141.1,105,140.4,104.3,140.4z"/>
		</g>
		<g class="st1">
			<path class="st2" d="M98.6,141.9l0.2-0.9c0.1-0.7,0.2-1.5,0-2.4l2.5,0.5c-0.4,0.7-0.6,1.5-0.8,2.2l-0.8,4.4
				c-0.1,0.7-0.2,1.5,0,2.4l-2.9-0.5c-1.1-0.2-3-0.8-2.6-3.2c0.4-2.1,2.2-2.8,4.1-2.5L98.6,141.9z M97.6,147.1
				c0.1-0.6,0.3-1.2,0.4-1.8l0.5-2.9l-0.3-0.1c-1.1-0.2-1.8,0.5-2.1,2.1c-0.3,1.7,0.3,2.4,1.4,2.6L97.6,147.1z"/>
		</g>
		<g class="st1">
			<path class="st2" d="M91.5,136.6c0,0.3,0,0.6-0.1,1c0.7-0.5,1.5-0.6,2.3-0.3c0.9,0.3,1.3,1.1,1,2c-0.4,1.1-1.7,1.1-2.7,1.1
				c-1.2,0-1.6,0.1-1.7,0.4l-0.2,0.5c-0.3,0.8-0.5,1.7,0.3,2c0.4,0.2,0.8,0,1-0.6c0.1-0.3,0.2-0.8,0.2-1.3l1.7,0.7l-0.1,0.4
				c-0.4,1.1-1.6,1.9-3.3,1.2c-1.8-0.7-1.8-2-1.3-3.5l0.7-1.9c0.4-1,0.5-1.5,0.5-2.3L91.5,136.6z M91.3,137.9l-0.5,1.4
				c-0.1,0.3-0.1,0.4,0.3,0.5c1,0.4,1.4,0.2,1.7-0.5c0.2-0.6,0.1-1.1-0.5-1.3C92,137.8,91.6,137.8,91.3,137.9z"/>
		</g>
		<g class="st1">
			<path class="st2" d="M82.3,139.8l1.5-2c0.1,1.1,0.3,1.5,0.6,1.6c0.5,0.3,0.9-0.3,1.4-1.3l0.9-1.6c0.4-0.7,0.6-1.2,0.7-2l2.1,1.2
				c-0.7,0.6-0.9,1-1.3,1.7l-1,1.8c-0.4,0.7-0.7,1.4-0.7,2.2c-0.7-0.1-1.3-0.1-1.9-0.1c0-0.4,0.2-1.1,0.3-1.5
				c-0.9,0.9-1.5,0.9-2.2,0.5C82.6,140.1,82.4,140,82.3,139.8z"/>
		</g>
		<g class="st1">
			<path class="st2" d="M81,130l1.7,1.3l-1.1,2.9c-0.1,0.3-0.1,0.4,0,0.6l1-0.5l0.2-0.2c0.5-0.6,0.8-1,1.1-1.8l1.8,1.4
				c-0.7,0.5-1.1,0.9-1.5,1.5l-3,3.9c-0.5,0.6-0.9,1.2-1.1,1.9c-0.7-0.3-1.4-0.5-2.1-0.6L82,135l-0.9,0.5c-2.1,1.1-2.8,1.3-3.7,0.6
				l-0.4-0.3l1.4-1.5c0.2,0.4,0.3,0.7,0.6,0.9c0.5,0.4,1,0.4,2.3-0.2l-0.8-0.6c-0.4-0.3-0.7-0.6-0.4-1.2l0.6-1.6
				C80.8,131,80.9,130.6,81,130z"/>
		</g>
		<g class="st1">
			<path class="st2" d="M80.9,128.9c-0.4,0.4-0.7,0.9-0.8,1.5c-0.7-0.2-1.3-0.3-2-0.5c0.1-0.4,0.4-0.8,0.7-1.1
				c0.9-0.9,2.3-1.1,3.1-0.4C81.5,128.5,81.2,128.6,80.9,128.9z"/>
		</g>
		<g class="st1">
			<path class="st2" d="M66.4,126c0.8-0.2,1.5-0.5,2.1-1l5.7-3.8l0.6,0.9l-3.1,6.7l3.3-2.2c0.6-0.4,1.2-0.9,1.7-1.6l0.8,1.2
				c-0.8,0.2-1.5,0.5-2.1,1l-4,2.7c-0.6,0.4-1.1,0.9-1.4,1.4l-1.2-1.8c0.1,0,0.3-0.1,0.4-0.1c0.2-0.2,0.4-0.5,0.6-0.9l2.5-5.2
				l-3.3,2.2c-0.6,0.4-1.2,0.9-1.7,1.6L66.4,126z"/>
		</g>
		<g class="st1">
			<path class="st2" d="M62.7,117.7c0.5,0.3,1.4,0.4,2.1,0.5l3.8,0.2l1.5-0.6c0.7-0.3,1.4-0.7,2-1.2l1,2.3c-0.9,0-1.6,0.3-2.3,0.6
				l-1.5,0.6l-2.5,2.8c-0.5,0.5-1.1,1.3-1.2,1.8l-1.1-2.7c0.2,0,0.3,0,0.5-0.1c0.3-0.1,0.7-0.4,1-0.7l2.1-2.2l-3,0
				c-0.5,0-0.9,0.1-1.2,0.2c-0.2,0.1-0.3,0.2-0.4,0.3L62.7,117.7z"/>
		</g>
		<g class="st1">
			<path class="st2" d="M63.6,109.9l0.8-0.4l0.4,0.8c-0.4,0.3-0.8,0.6-1.1,1.3c0.7-0.2,1.1-0.4,1.4-0.8l0.7,0.5l-0.5,0.7
				c-0.5-0.2-0.9-0.3-1.6-0.3c0.5,0.5,0.9,0.7,1.4,0.9l-0.1,0.9l-0.9-0.1c0-0.5-0.1-0.9-0.6-1.5c-0.2,0.7-0.2,1.2,0,1.6l-0.8,0.4
				l-0.4-0.8c0.4-0.3,0.8-0.6,1.1-1.3c-0.7,0.2-1.1,0.4-1.4,0.8l-0.7-0.5l0.5-0.7c0.5,0.2,0.9,0.3,1.6,0.3c-0.5-0.5-0.9-0.7-1.4-0.9
				l0.1-0.9l0.9,0.1c0,0.5,0.1,0.9,0.6,1.5C63.8,110.8,63.8,110.4,63.6,109.9z"/>
		</g>
		<polygon class="st3" points="96.6,103.4 86.2,103.4 86.2,96.3 91.4,90.1 96.6,96.3 		"/>
		<rect x="96.6" y="96.3" class="st4" width="26.5" height="7.1"/>
		<polygon class="st5" points="91.4,90.1 96.6,96.3 123.1,96.3 117.1,90.3 		"/>
		<circle class="st6" cx="90.9" cy="95.4" r="1.4"/>
		<polygon class="st7" points="107.9,91.1 105.8,91.1 103.7,91.1 103.7,87.7 107.9,87.7 		"/>
		<polygon class="st8" points="105.8,85.6 103.3,87.7 108.4,87.7 		"/>
		<path class="st9" d="M106.6,88.4L106.6,88.4c0.3,0,0.5,0.2,0.5,0.5v1.7l0,0h-0.9l0,0v-1.7C106.2,88.6,106.4,88.4,106.6,88.4z"/>
		<path class="st9" d="M105,88.4L105,88.4c0.3,0,0.5,0.2,0.5,0.5v1.7l0,0h-0.9l0,0v-1.7C104.5,88.6,104.7,88.4,105,88.4z"/>
		<line class="st10" x1="96.6" y1="97.6" x2="111.4" y2="97.6"/>
		<line class="st10" x1="113.8" y1="97.6" x2="123.1" y2="97.6"/>
		<line class="st10" x1="96.6" y1="100.8" x2="111.4" y2="100.8"/>
		<line class="st10" x1="113.2" y1="100.8" x2="123.1" y2="100.8"/>
		<line class="st10" x1="108.2" y1="99.1" x2="123.1" y2="99.1"/>
		<line class="st10" x1="96.6" y1="99.1" x2="106.2" y2="99.1"/>
		<line class="st10" x1="107.2" y1="102.4" x2="123.1" y2="102.4"/>
		<line class="st10" x1="96.6" y1="102.4" x2="105.4" y2="102.4"/>
		<polygon class="st3" points="112.7,104.8 123.1,104.8 123.1,112 117.9,118.1 112.7,112 		"/>
		<rect x="86.2" y="104.9" class="st4" width="26.5" height="7.1"/>
		<polygon class="st5" points="117.9,118.1 112.7,112 86.2,112 92.2,117.9 		"/>
		<circle class="st6" cx="118.3" cy="112.9" r="1.4"/>
		<polygon class="st7" points="101.3,117.1 103.4,117.1 105.6,117.1 105.6,120.5 101.3,120.5 		"/>
		<polygon class="st8" points="103.4,122.7 106,120.5 100.9,120.5 		"/>
		<path class="st9" d="M102.6,119.8L102.6,119.8c-0.3,0-0.5-0.2-0.5-0.5v-1.7l0,0h0.9l0,0v1.7C103.1,119.6,102.9,119.8,102.6,119.8z
			"/>
		<path class="st9" d="M104.3,119.8L104.3,119.8c-0.3,0-0.5-0.2-0.5-0.5v-1.7l0,0h0.9l0,0v1.7C104.7,119.6,104.5,119.8,104.3,119.8z
			"/>
		<line class="st10" x1="112.7" y1="110.7" x2="97.8" y2="110.7"/>
		<line class="st10" x1="95.5" y1="110.7" x2="86.2" y2="110.7"/>
		<line class="st10" x1="112.7" y1="107.4" x2="97.8" y2="107.4"/>
		<line class="st10" x1="96.1" y1="107.4" x2="86.2" y2="107.4"/>
		<line class="st10" x1="101.1" y1="109.2" x2="86.2" y2="109.2"/>
		<line class="st10" x1="112.7" y1="109.2" x2="103" y2="109.2"/>
		<line class="st10" x1="102" y1="105.8" x2="86.2" y2="105.8"/>
		<line class="st10" x1="112.7" y1="105.8" x2="103.8" y2="105.8"/>
		<polygon class="st2" points="98.8,85.7 99.4,84.2 100,85.7 101.6,86.3 100,86.9 99.4,88.4 98.8,86.9 97.3,86.3 		"/>
		<polygon class="st2" points="112.8,82 113.1,81.2 113.3,82 114.1,82.3 113.3,82.6 113.1,83.3 112.8,82.6 112,82.3 		"/>
		<polygon class="st2" points="92.8,80.9 93.1,80.2 93.4,80.9 94.1,81.2 93.4,81.5 93.1,82.3 92.8,81.5 92,81.2 		"/>
		<polygon class="st2" points="126,94.2 126.4,93.1 126.9,94.2 128.1,94.7 126.9,95.2 126.4,96.3 126,95.2 124.8,94.7 		"/>
		<polygon class="st2" points="84.2,91.4 84.7,90.2 85.2,91.4 86.3,91.8 85.2,92.3 84.7,93.5 84.2,92.3 83.1,91.8 		"/>
		<polygon class="st2" points="79.3,100.2 79.6,99.5 79.9,100.2 80.7,100.6 79.9,100.8 79.6,101.6 79.3,100.8 78.6,100.6 		"/>
		<polygon class="st2" points="123.5,90 123.8,89.2 124.1,90 124.8,90.3 124.1,90.6 123.8,91.3 123.5,90.6 122.7,90.3 		"/>
		<polygon class="st2" points="128,106.9 128.6,105.3 129.1,106.9 130.7,107.4 129.1,108.1 128.6,109.6 128,108.1 126.4,107.4 		"/>
		<polygon class="st2" points="123.1,120.7 123.8,122.2 122.3,121.6 120.8,122.2 121.5,120.7 120.8,119.2 122.3,119.9 123.8,119.2 
					"/>
		<polygon class="st2" points="99.9,128 100.2,128.8 99.4,128.4 98.7,128.8 99,128 98.7,127.3 99.4,127.6 100.2,127.3 		"/>
		<polygon class="st2" points="126.1,114.3 126.4,115.1 125.7,114.7 124.9,115.1 125.3,114.3 124.9,113.6 125.7,113.9 126.4,113.6 
					"/>
		<polygon class="st2" points="96.1,123.4 96.6,124.6 95.4,124 94.3,124.6 94.8,123.4 94.3,122.2 95.4,122.7 96.6,122.2 		"/>
		<polygon class="st2" points="82.5,110.4 83,111.6 81.8,111.1 80.7,111.6 81.2,110.4 80.7,109.3 81.8,109.8 83,109.3 		"/>
		<polygon class="st2" points="117.4,88 117.7,88.8 116.9,88.4 116.2,88.8 116.5,88 116.2,87.3 116.9,87.6 117.7,87.3 		"/>
		<polygon class="st2" points="112.4,128 112.7,128.8 112,128.4 111.2,128.8 111.6,128 111.2,127.3 112,127.6 112.7,127.3 		"/>
		<polygon class="st2" points="87,119.8 87.7,121.3 86.2,120.6 84.7,121.3 85.3,119.8 84.7,118.3 86.2,118.9 87.7,118.3 		"/>
	</g>
</g>
</svg>
