<svg xmlns="http://www.w3.org/2000/svg" viewBox="0 0 158.69 158.69"><defs><style>.cls-1{fill:#2d2929;}.cls-2{fill:#fff;}.cls-3{fill:#ccc4b7;}.cls-4{fill:#c8a386;}.cls-5{fill:#d43b2a;}.cls-6{fill:#b3a792;}.cls-7{fill:#bb2324;}.cls-8{fill:#ac5642;}.cls-9{fill:#f0f0f0;}.cls-10{fill:none;stroke:#7a4d29;stroke-miterlimit:10;stroke-width:0.46px;}</style></defs><g id="Layer_2" data-name="Layer 2"><g id="Layer_1-2" data-name="Layer 1"><circle class="cls-1" cx="79.34" cy="79.34" r="79.34"/><path class="cls-2" d="M20.79,74.73a13.8,13.8,0,0,0,4.77-1l.24,4.86A14,14,0,0,0,21,78l-9,.45,14.06,4,.09,1.71L12.33,89.57l9.2-.47a13.57,13.57,0,0,0,4.76-1L26.44,91a13.73,13.73,0,0,0-4.84-.54L11.44,91a8,8,0,0,0-3.92,1l-.28-5.64a2.5,2.5,0,0,0,1.38.22,10.56,10.56,0,0,0,3-.68L21,82.33l-9.67-2.54a10.74,10.74,0,0,0-2.94-.35,2.57,2.57,0,0,0-1.44.4l-.26-5.18a7.27,7.27,0,0,0,4,.58Z"/><path class="cls-2" d="M28,65a4.2,4.2,0,0,0-1.8-.82,9.72,9.72,0,0,0-2.42-.3l-1.82,0-1.15,4.45,1.57.92a8.25,8.25,0,0,0,2.06.86,4.58,4.58,0,0,0,2.2.15l-.94,3.61a13,13,0,0,0-3.81-3.3L8.91,62.43l.44-1.69,15.27-.88a15.11,15.11,0,0,0,4.9-.91ZM20.9,63.89,13.44,64l6.45,3.8Z"/><path class="cls-2" d="M36.58,46.85,34.25,51,28,49.47c-1.27-.31-1.86-.21-2.18.17s-.6,1-.89,1.51l2.74,1.55a16.27,16.27,0,0,0,4.62,1.72L29.67,59A13.7,13.7,0,0,0,25.81,56l-8-4.55a13.35,13.35,0,0,0-4.62-1.72L16.44,44c1.49-2.61,4-4.78,7.52-2.8a5.46,5.46,0,0,1,2.73,5.24c.66-.87,1.34-1,2.82-.61l3.9.87A9.2,9.2,0,0,0,36.58,46.85ZM24.31,50.1c1.18-2.08,1.25-3.61-1.79-5.34-2.52-1.4-4.56-1.18-5.58.62-.16.27-.33.58-.48.9,1.08.64,2.15,1.29,3.19,1.88L24,50.63Z"/><path class="cls-2" d="M38.86,31,45,37a10.76,10.76,0,0,1-2.83,4.87C39,45.21,34.08,44.61,30,40.65c-4.49-4.41-4.64-9.79-1-13.47a10.27,10.27,0,0,1,3.27-2.37l3,4.52c-3-.77-5.11-.65-6.38.64-1.59,1.62-.87,3.71,2.35,6.88,3.82,3.76,8.68,4.77,10.82,2.58a4.58,4.58,0,0,0,.43-.47c-3-3-5.27-4.29-7.4-4.2Z"/><path class="cls-2" d="M42,28.52c-2.87-5.14-2.05-10.07,1.92-12.29s8.49-.1,11.34,5,2.15,10.11-1.85,12.34S44.76,33.53,42,28.52ZM52.69,24.9C49.86,19.83,46.34,16.7,44,18c-1.75,1-1.51,3.21.51,6.82,2.77,5,6.29,8.34,8.78,6.94C55,30.8,54.64,28.38,52.69,24.9Z"/><path class="cls-2" d="M72.29,26.8a4.24,4.24,0,0,0,0-2,9.39,9.39,0,0,0-.7-2.34l-.76-1.65-4.55.74-.21,1.8a8,8,0,0,0,0,2.24,4.55,4.55,0,0,0,.74,2.06l-3.68.59a13.11,13.11,0,0,0,1.5-4.81L67,8.33l1.73-.28,6.92,13.64a14.37,14.37,0,0,0,2.79,4.12Zm-1.85-6.9-3.1-6.79-.9,7.43Z"/><path class="cls-2" d="M93.81,8.58a13.43,13.43,0,0,0-1.34,4.69l-1.53,14-2.32-.25-6.57-13.9-.9,8.25a14.45,14.45,0,0,0,.26,4.86l-3-.33a14.46,14.46,0,0,0,1.33-4.69l1.1-10a8.92,8.92,0,0,0-.37-4.14l4.37.48a2,2,0,0,0-.26.76,4,4,0,0,0,.62,2.12l5,10.76L91,13.11a14.51,14.51,0,0,0-.26-4.87Z"/><path class="cls-2" d="M109.31,23.73c-2.42,6-7.08,7.73-11.35,6l-5.35-2.17a14.56,14.56,0,0,0,2.55-4.21l3.45-8.54A14,14,0,0,0,99.7,10l5.54,2.24C109.11,13.81,111.78,17.62,109.31,23.73ZM105.44,23c1.84-4.54,1.81-8.6-1.32-9.87l-.65-.26c-.53,1.17-1,2.24-1.46,3.38l-3.45,8.53a35.24,35.24,0,0,0-1.21,3.47,8.16,8.16,0,0,0,.8.36C101.5,29.91,103.84,26.93,105.44,23Z"/><path class="cls-2" d="M127.24,27.16l-8.47,9.78a12.21,12.21,0,0,0-2.52,4.25l-4.1-3.55A12.93,12.93,0,0,0,116,34.53l8.47-9.78c-2-1.7-3.56-1.5-6.84.2l3.86-4.28,10.22,8.85L128,33.94C129.37,30.35,129.23,28.87,127.24,27.16Z"/><path class="cls-2" d="M142.94,44.71a11.82,11.82,0,0,0-4.41,0L130.82,46,128,47.93a13.8,13.8,0,0,0-3.55,3.42l-3-4.29A14.49,14.49,0,0,0,126,44.91l2.8-1.94,3.76-6.69a14.07,14.07,0,0,0,1.73-4.11l3.43,4.95a2.19,2.19,0,0,0-1,.39A7.11,7.11,0,0,0,135,39.42l-3.28,5.29,6-1.25a6.7,6.7,0,0,0,2.42-1,2,2,0,0,0,.7-.77Z"/><path class="cls-2" d="M135.82,63.67l-4.88,1.83-4-10.12a14.55,14.55,0,0,0,4.81-1.06L140.38,51a13.71,13.71,0,0,0,4.25-2.5l1.84,4.73a16.48,16.48,0,0,0-4.75,1.2l-8.58,3.34a24.34,24.34,0,0,0-3.27,1.49l.17.43A6.19,6.19,0,0,0,135.82,63.67Z"/><path class="cls-2" d="M138,76.86l-5.15.85-1.69-11.42a14.64,14.64,0,0,0,4.93.07l9.1-1.34a14,14,0,0,0,4.7-1.49L151.59,75l-5.15.64c2.14-1.67,3.29-3.46,3-7.12l0-.29c-1.26.09-2.47.27-3.65.45l-3.66.54.06.37a6.11,6.11,0,0,0,3,4.78l-5.73.85a6.4,6.4,0,0,0,1.55-5.45l-.06-.37-4.23.62c-1.19.18-2.39.39-3.61.68v.09C133.7,74.7,135.43,75.83,138,76.86Z"/><path class="cls-2" d="M131.55,92.48l.47-4.69,6.33-1.18c1.28-.22,1.79-.55,1.92-1s.15-1.16.21-1.74l-3.13-.32a16.3,16.3,0,0,0-4.92.3l.53-5.25a13.66,13.66,0,0,0,4.76,1.24l9.16.93a13.25,13.25,0,0,0,4.93-.29L151.14,87c-.3,3-1.75,6-5.75,5.6a5.46,5.46,0,0,1-4.61-3.69c-.25,1.06-.84,1.41-2.33,1.7l-3.92.77A9.32,9.32,0,0,0,131.55,92.48Zm9.91-7.92c-.24,2.37.32,3.81,3.8,4.16,2.87.26,4.64-.76,4.85-2.82,0-.32.07-.66.07-1-1.24-.15-2.48-.31-3.67-.43l-5-.5Z"/><path class="cls-2" d="M143.39,110.44l-11.8-5.3a12.34,12.34,0,0,0-4.8-1.19L129,99a12.76,12.76,0,0,0,4.08,2.79l11.8,5.3c1.06-2.37.42-3.84-2.16-6.5l5.22,2.47-5.54,12.34-5.3-2.29C140.94,113.4,142.32,112.83,143.39,110.44Z"/><path class="cls-2" d="M128.11,111.31l7.58,5.23a13.28,13.28,0,0,0,4.47,2.09l-3,4.34a13.17,13.17,0,0,0-3.56-3.41L126,114.33a13.9,13.9,0,0,0-4.44-2.15l3-4.29A14,14,0,0,0,128.11,111.31Z"/><path class="cls-2" d="M116.59,125.13l-3.75-3.62,8.15-8.16a14.65,14.65,0,0,0,2.88,4l6.52,6.5a13.87,13.87,0,0,0,4,2.88l-8.17,8.19-3.59-3.75c2.62.72,4.74.57,7.5-1.86l.2-.21c-.82-.94-1.69-1.81-2.53-2.65l-2.62-2.61-.27.26a6.12,6.12,0,0,0-2,5.24l-4.11-4.1a6.34,6.34,0,0,0,5.29-2l.27-.27-3-3a36,36,0,0,0-2.7-2.49l-.06.06C115.76,120.4,115.89,122.45,116.59,125.13Z"/><path class="cls-2" d="M110.34,143.66l-6-11.49a12.31,12.31,0,0,0-3-3.92l4.81-2.48a12.94,12.94,0,0,0,1.46,4.72L113.6,142c2.3-1.19,2.71-2.74,2.34-6.43l2.55,5.18-12,6.21-2.73-5.08C106.58,144.45,108,144.86,110.34,143.66Z"/><path class="cls-2" d="M85.74,137.83a13.09,13.09,0,0,0-1.8-4.58l5-1.11a13.81,13.81,0,0,0,.4,4.9l1,4.44,5-1.12-1-4.44a12.54,12.54,0,0,0-1.77-4.59l5-1.12a14.49,14.49,0,0,0,.28,4.92l2,9a13.87,13.87,0,0,0,1.83,4.58l-5,1.11a13.13,13.13,0,0,0-.37-4.9l-.8-3.59-5,1.12.8,3.59a13.75,13.75,0,0,0,1.71,4.6l-5,1.11a14,14,0,0,0-.31-4.92Z"/><path class="cls-2" d="M71.36,138l.09-5.21,11.54.41A14.57,14.57,0,0,0,82,138l-.32,9.21a13.86,13.86,0,0,0,.61,4.89l-11.56-.42.3-5.17c1.26,2.4,2.81,3.86,6.47,4.22h.29c.13-1.25.18-2.47.22-3.67l.13-3.69-.38,0a6.13,6.13,0,0,0-5.23,2.06l.2-5.79a6.41,6.41,0,0,0,5.07,2.51h.38l.16-4.28c0-1.19,0-2.42,0-3.67h-.08C74.26,134.14,72.84,135.63,71.36,138Z"/><path class="cls-2" d="M53.45,127l4.5,1.69-.52,8.7c0,.62.06.93.27,1.1l2.53-1.67.68-1.83a13.93,13.93,0,0,0,1-4.83L66.82,132a13.82,13.82,0,0,0-2.42,4.29l-3.23,8.62a13.33,13.33,0,0,0-1,4.84l-5-1.88a13.21,13.21,0,0,0,2.47-4.27l2-5.34-5.51,4.09a7.73,7.73,0,0,0-3.14,4L47,144.75a26.15,26.15,0,0,0,6.42-3.45l3.4-2.24L55,138.41c-.9-.34-1.61-.76-1.62-1.48l.37-6.24A11.3,11.3,0,0,0,53.45,127Z"/><path class="cls-2" d="M31.54,134.37A13.48,13.48,0,0,0,35,130.94l8.25-11.47,1.89,1.36L44,136.17l4.84-6.74A14.24,14.24,0,0,0,51,125.07l2.48,1.78a14.28,14.28,0,0,0-3.46,3.43l-5.87,8.16a8.72,8.72,0,0,0-1.72,3.79l-3.57-2.57a1.85,1.85,0,0,0,.6-.54A4,4,0,0,0,40,137l1-11.8-4.78,6.64a14.24,14.24,0,0,0-2.17,4.36Z"/><path class="cls-2" d="M34.35,124.32c-4.64,3.62-9.64,3.56-12.44,0s-1.39-8.37,3.23-12,9.67-3.66,12.48-.06S38.88,120.78,34.35,124.32Zm-5.22-10c-4.57,3.56-7.13,7.52-5.47,9.66,1.24,1.58,3.41,1,6.67-1.54,4.48-3.5,7.28-7.49,5.52-9.74C34.62,111.06,32.28,111.81,29.13,114.27Z"/><path class="cls-2" d="M12.88,105.29l11.94-5A12.07,12.07,0,0,0,29,97.65l2.08,5a12.77,12.77,0,0,0-4.83,1l-11.94,5c1,2.39,2.51,2.93,6.21,2.87l-5.37,2.11L9.94,101.18l5.29-2.3C12.4,101.48,11.87,102.87,12.88,105.29Z"/><path class="cls-2" d="M38,76.13l1.89.18a2.94,2.94,0,0,0-.93-2.64L42,74a3,3,0,0,0-1.48,2.41l1.93.19a6.4,6.4,0,0,0,2.37-.12l-.24,2.49a6.57,6.57,0,0,0-2.3-.61l-4.42-.43a6.24,6.24,0,0,0-2.37.15L36,72.67l2.48.27a3.53,3.53,0,0,0-2.23,2.92v0C36.82,76,37.41,76.07,38,76.13Z"/><path class="cls-2" d="M47,66.61l-.63,2.19h-3.1c-.63,0-.9.11-1,.33s-.17.53-.25.8l1.46.43a8.13,8.13,0,0,0,2.36.29l-.7,2.44a6.77,6.77,0,0,0-2.16-1l-4.27-1.24a6.44,6.44,0,0,0-2.36-.29l.89-3c.4-1.4,1.35-2.7,3.21-2.16a2.61,2.61,0,0,1,1.87,2.15c.21-.48.52-.59,1.26-.6l1.92,0A4.49,4.49,0,0,0,47,66.61Zm-5.39,2.9c.32-1.11.18-1.84-1.44-2.31-1.34-.37-2.27,0-2.55.92,0,.15-.09.31-.12.48.58.18,1.15.36,1.71.52l2.32.67Z"/><path class="cls-2" d="M45.26,65.11l-4-1.86a6.61,6.61,0,0,0-2.3-.62L40,60.32a6.26,6.26,0,0,0,2,1.32l4,1.86a6.79,6.79,0,0,0,2.29.65l-1,2.28A6.59,6.59,0,0,0,45.26,65.11Z"/><path class="cls-2" d="M48.26,55.22c2.6,1.72,3,4.09,1.74,6l-1.53,2.32a7.17,7.17,0,0,0-1.75-1.62L43,59.42a7,7,0,0,0-2.17-1L42.44,56C43.55,54.36,45.61,53.46,48.26,55.22ZM47.52,57c-2-1.3-3.89-1.69-4.79-.33l-.19.29c.5.36,1,.68,1.45,1L47.7,60.4a14.85,14.85,0,0,0,1.52.9,2.08,2.08,0,0,0,.24-.34C50.43,59.51,49.24,58.11,47.52,57Z"/><path class="cls-2" d="M55.1,54.91a2,2,0,0,0-.55-.78,4.74,4.74,0,0,0-.94-.71L52.84,53l-1.56,1.58.43.76a3.71,3.71,0,0,0,.66.86,2.17,2.17,0,0,0,.88.59L52,58.07a6.36,6.36,0,0,0-.79-2.3l-3.43-6.53.59-.6L54.94,52a7.37,7.37,0,0,0,2.26.81Zm-2.69-2.16L49.27,51,51,54.14Z"/><path class="cls-2" d="M56.75,42a5.67,5.67,0,0,0,0,2.13l.68,3.71.95,1.33a6.82,6.82,0,0,0,1.67,1.68l-2,1.47A7.16,7.16,0,0,0,57,50.23l-1-1.34-3.25-1.77a7,7,0,0,0-2-.8l2.36-1.69a1.05,1.05,0,0,0,.2.48,3.25,3.25,0,0,0,.93.8l2.57,1.55-.64-2.91a3.44,3.44,0,0,0-.48-1.16,1,1,0,0,0-.38-.33Z"/><path class="cls-2" d="M61.88,50.43a2.73,2.73,0,0,0-1.21-1.1c.36-.59.68-1.2,1-1.82a2.58,2.58,0,0,1,.49,4A2.15,2.15,0,0,0,61.88,50.43Z"/><path class="cls-2" d="M68.86,46.73a2.12,2.12,0,0,0-.14-.95,4.28,4.28,0,0,0-.52-1.05L67.71,44l-2.11.7.05.88a3.81,3.81,0,0,0,.19,1.06,2.14,2.14,0,0,0,.51.93l-1.7.57A6.36,6.36,0,0,0,65,45.73l-.09-7.38.8-.27,4.36,6a7.1,7.1,0,0,0,1.65,1.74Zm-1.42-3.14-2-3,.16,3.61Z"/><path class="cls-2" d="M77.06,36a6.23,6.23,0,0,0-.1,2.34l.5,4.12a2.66,2.66,0,0,1-2.56,3.22,2.62,2.62,0,0,1-3.18-2.52L71.21,39a6.77,6.77,0,0,0-.66-2.25L73,36.46a6.18,6.18,0,0,0,0,2.34l.5,4.08c.15,1.21.84,1.78,1.9,1.65s1.51-.84,1.36-2.05l-.5-4.08a5.45,5.45,0,0,0-.7-2.24Z"/><path class="cls-2" d="M85.44,40.91l-.34,4.16a5.2,5.2,0,0,1-2.67.46c-2.23-.18-3.51-2.17-3.29-4.89.24-3,2.19-4.74,4.66-4.54a5.25,5.25,0,0,1,1.9.48L85,39.1c-.63-1.33-1.34-2.1-2.21-2.17-1.09-.09-1.64.83-1.82,3-.21,2.57.91,4.68,2.38,4.8h.31c.17-2,0-3.27-.73-4Z"/><path class="cls-2" d="M94.61,38.71a6.65,6.65,0,0,0-1,2.11l-1.16,4a2.67,2.67,0,0,1-3.63,1.94,2.62,2.62,0,0,1-1.93-3.57l1.16-4a7,7,0,0,0,.29-2.34l2.39.7a6.14,6.14,0,0,0-1,2.14l-1.15,3.94a1.61,1.61,0,0,0,1.09,2.27c1,.29,1.72-.18,2.07-1.35l1.15-3.94a5.78,5.78,0,0,0,.25-2.35Z"/><path class="cls-2" d="M97.06,41.73c-.29.57-.13,1.13.57,2.31l.67,1.13a2.7,2.7,0,0,1,.29,2.73,2.83,2.83,0,0,1-3.84,1.22,3.1,3.1,0,0,1-1.55-3.39l1.74-.15c-.26,1.81.12,2.7.76,3A.94.94,0,0,0,97,48.22c.29-.58.28-1.06-.3-2l-.89-1.47c-.57-.94-1-1.71-.4-2.8.67-1.31,2.44-1.86,4.29-.9a7.33,7.33,0,0,1,1.53,1.08l-1.59,2.3a3.51,3.51,0,0,0-1.35-3.07A.88.88,0,0,0,97.06,41.73Z"/><path class="cls-2" d="M106.07,46l-3.8,4.95a6.08,6.08,0,0,0-1.09,2.12l-2.07-1.58a6.54,6.54,0,0,0,1.76-1.61l3.79-5c-1-.76-1.76-.62-3.29.3L103.11,43l5.18,4-1.66,2.23C107.18,47.46,107.07,46.76,106.07,46Z"/><path class="cls-2" d="M109.5,58.81,107.63,60,104,55.54l2.42.05c3.26,0,4.06-.21,5.32-1.23.76-.62,1.26-1.48.7-2.16a1.15,1.15,0,0,0-1.74,0,3.69,3.69,0,0,0-.94,1.29l-1.06-1.58.41-.33a2.77,2.77,0,0,1,4,.54,2.43,2.43,0,0,1-.17,3.65c-1.13.92-2.59.91-5.79.55l-.83-.08C108.08,58.18,108.63,58.63,109.5,58.81Z"/><path class="cls-2" d="M112.12,58.38c2.51-1.33,4.84-1,5.8.83s-.21,3.9-2.61,5.17-4.84,1-5.8-.82S109.71,59.65,112.12,58.38ZM113.86,63c2.59-1.38,3.74-2.8,3.25-3.74s-1.75-.51-3.54.43c-2.59,1.39-3.74,2.83-3.24,3.76S112.07,64,113.86,63Z"/><path class="cls-2" d="M121.2,66l-3.45,1.16a3.31,3.31,0,0,0-1.21.67l-.49-1.44a3.56,3.56,0,0,0,1.37-.2L120.87,65c-.24-.69-.65-.87-1.69-.92l1.55-.49,1.21,3.59-1.52.55C121.26,67,121.43,66.66,121.2,66Z"/><path class="cls-2" d="M119.21,72.85a3.49,3.49,0,0,0-1.29.5l-.31-1.41a3.9,3.9,0,0,0,1.38-.1l1.25-.27-.31-1.42-1.25.27a3.53,3.53,0,0,0-1.29.49l-.31-1.42a4.25,4.25,0,0,0,1.39-.07l2.53-.55a3.83,3.83,0,0,0,1.29-.5l.3,1.41a3.7,3.7,0,0,0-1.38.09l-1,.22.31,1.42,1-.22a3.79,3.79,0,0,0,1.3-.47l.3,1.4a3.92,3.92,0,0,0-1.38.08Z"/><path class="cls-2" d="M116,81.55l-2.18-.23-.17-5.7,1.88,1.51c2.58,2,3.36,2.31,5,2.26,1,0,1.9-.41,1.87-1.29,0-.73-.58-1.11-1.35-1.09a3.72,3.72,0,0,0-1.54.46l.12-1.91h.53A2.77,2.77,0,0,1,123,78.44a2.44,2.44,0,0,1-2.35,2.8c-1.47,0-2.62-.85-4.95-3.08l-.61-.58C115.21,80.18,115.37,80.88,116,81.55Z"/><path class="cls-2" d="M118.3,82.78c2.8.47,4.44,2.15,4.1,4.19s-2.53,3-5.22,2.52-4.44-2.15-4.11-4.17S115.61,82.33,118.3,82.78Zm-1.45,4.76c2.9.47,4.68,0,4.86-1s-1.08-1.48-3.08-1.81c-2.9-.47-4.69,0-4.86,1S114.85,87.21,116.85,87.54Z"/><path class="cls-2" d="M112.53,95.33l-1.94-1,2-5.35,1.18,2.13c1.62,2.83,2.23,3.4,3.75,4,.92.34,1.91.34,2.22-.49A1.15,1.15,0,0,0,118.9,93a3.77,3.77,0,0,0-1.59-.16l.82-1.71.5.18a2.77,2.77,0,0,1,1.57,3.77,2.43,2.43,0,0,1-3.23,1.7c-1.37-.51-2.1-1.77-3.41-4.73l-.34-.76C112.36,93.78,112.24,94.49,112.53,95.33Z"/><path class="cls-2" d="M112,96.58l3.46,1.88a2.88,2.88,0,0,0,2,.52,24.28,24.28,0,0,0-.13,2.44l-6.13-3.35a4.66,4.66,0,0,0-2.28-.73l1.24-2.26A4.81,4.81,0,0,0,112,96.58Z"/><path class="cls-2" d="M107.78,98a2.77,2.77,0,0,0,1.58.44c0,.69-.07,1.37-.08,2.07a2.58,2.58,0,0,1-2.23-3.32A2.27,2.27,0,0,0,107.78,98Z"/><path class="cls-2" d="M104,116.15a4.85,4.85,0,0,0-.64-2.35l-3.41-6.39.78-.7,5.74,3.36L103.72,104l.73-.66,6.07,4a5.39,5.39,0,0,0,2.22.93l-2.29,2.06a1.62,1.62,0,0,0-.46-.76,5.63,5.63,0,0,0-.93-.82l-3.94-2.87,2.24,4.76a6,6,0,0,0,1.89.78l-2.27,2a1.44,1.44,0,0,0-.41-.79,5.53,5.53,0,0,0-1-.81l-4.13-2.72,2.41,4.27a4.44,4.44,0,0,0,.65.91,2.25,2.25,0,0,0,.79.63Z"/><path class="cls-2" d="M95,114.45l3.25-1.76c-.75-1.11-1.64-1.59-3-.87a2.56,2.56,0,0,0-1.09,1.07A2.34,2.34,0,0,1,95.36,110c1.54-.84,3.32-.14,4.36,1.77s.9,3.79-.87,4.75a2.36,2.36,0,0,1-3.39-1.18Zm2,0c.7,1.29,1.3,1.63,1.78,1.36s.57-1.13-.2-2.54l-.15-.27-1.27.69C96.79,114,96.75,114,97,114.5Z"/><path class="cls-2" d="M93.59,117.47c-.16-.45-.69-.61-1.78-.82l-.93-.18a2.16,2.16,0,0,1-1.82-1.39,2.31,2.31,0,0,1,1.51-2.94,2.93,2.93,0,0,1,3,.66l-.83,1.35c-1-1-1.89-1.3-2.5-1.09a.61.61,0,0,0-.42.84c.15.42.53.63,1.4.79l1.3.22c.88.18,1.69.41,2,1.29.4,1.13-.24,2.43-2,3.07a4.65,4.65,0,0,1-1.58.27l-.53-2.22a3,3,0,0,0,2.76.88A.56.56,0,0,0,93.59,117.47Z"/><path class="cls-2" d="M85.4,115a1.41,1.41,0,0,0-.77.54,1.78,1.78,0,0,1,1.42-2.1c.84-.18,1.58.25,1.86,1.58l1,4.71.78-.17,0,.5-.71.15c.07.3.16.64.3,1.1a10.67,10.67,0,0,0-1.59,1.25l-.42-2-1.58.33,0-.5,1.51-.31-.87-4.13C86.25,115.57,86.09,114.82,85.4,115Z"/><path class="cls-2" d="M80.07,117.54v-1a7.29,7.29,0,0,0-.38-2.34h2.51a6.58,6.58,0,0,0-.35,2.35V121a6.42,6.42,0,0,0,.38,2.35H79.32c-1.14,0-3.12-.23-3.12-2.67,0-2.14,1.66-3.17,3.61-3.17Zm0,5.29c0-.6,0-1.22,0-1.8v-3h-.28c-1.11,0-1.73.83-1.73,2.42s.7,2.35,1.82,2.34Z"/><path class="cls-2" d="M72.17,113.56a2.21,2.21,0,0,1,.1,1,2.48,2.48,0,0,1,2.17-.71,1.45,1.45,0,0,1,1.3,1.74c-.2,1.15-1.42,1.39-2.45,1.61s-1.54.42-1.59.7l-.09.51c-.15.87-.14,1.76.66,1.9.47.08.8-.19.9-.76a3.33,3.33,0,0,0-.08-1.34l1.83.42-.07.37a2.32,2.32,0,0,1-3,1.82c-1.88-.33-2.17-1.62-1.9-3.15l.36-2.06a5,5,0,0,0,0-2.36Zm.06,1.32L72,116.34c0,.29,0,.35.37.42,1,.18,1.42-.09,1.54-.79a.92.92,0,0,0-.76-1.19A1.67,1.67,0,0,0,72.23,114.88Z"/><path class="cls-2" d="M63.67,118.47l1.06-2.24c.29,1,.58,1.4.88,1.5.49.17.79-.43,1.18-1.56l.58-1.73a5.34,5.34,0,0,0,.36-2.12l2.28.76A5.46,5.46,0,0,0,69,115l-.64,1.91a4.57,4.57,0,0,0-.26,2.3c-.67.06-1.28.12-1.93.23a4.62,4.62,0,0,1,0-1.56c-.67,1-1.28,1.11-2,.86A2.91,2.91,0,0,1,63.67,118.47Z"/><path class="cls-2" d="M60.5,109l1.86,1-.58,3c-.06.34-.05.47.12.6l.93-.67.14-.27a9.21,9.21,0,0,0,.8-2l2,1a5.59,5.59,0,0,0-1.27,1.74l-2.28,4.4a5.18,5.18,0,0,0-.71,2.06,11.29,11.29,0,0,0-2.18-.25l3.06-5.92-.83.65c-1.83,1.43-2.5,1.83-3.56,1.28l-.47-.24,1.12-1.78a1.84,1.84,0,0,0,.72.78c.52.27,1,.24,2.23-.63l-.87-.46c-.47-.23-.77-.48-.64-1.12l.31-1.73A5.2,5.2,0,0,0,60.5,109Z"/><path class="cls-2" d="M60.27,108a2.65,2.65,0,0,0-.47,1.57c-.69-.07-1.37-.1-2.07-.13a2.48,2.48,0,0,1,.44-1.18,2.43,2.43,0,0,1,2.92-1A2.19,2.19,0,0,0,60.27,108Z"/><path class="cls-2" d="M45.52,107.75a6.54,6.54,0,0,0,1.94-1.33l4.89-4.74.78.81-1.84,7.18,2.88-2.78a7,7,0,0,0,1.4-1.89l1,1.06a6.79,6.79,0,0,0-1.94,1.33l-3.48,3.38A4,4,0,0,0,50,112.42l-1.48-1.53a.79.79,0,0,0,.33-.2,1.9,1.9,0,0,0,.42-1l1.48-5.52L48,106.94a6.74,6.74,0,0,0-1.4,1.88Z"/><path class="cls-2" d="M40.44,100.26a5.67,5.67,0,0,0,2.12.08l3.74-.5L47.67,99a6.74,6.74,0,0,0,1.77-1.59l1.36,2.11a7.17,7.17,0,0,0-2.17,1l-1.38.89-1.93,3.16a6.82,6.82,0,0,0-.9,2L42.85,104a.92.92,0,0,0,.49-.16,3.53,3.53,0,0,0,.85-.9l1.66-2.49-2.93.5a3.09,3.09,0,0,0-1.18.42,1,1,0,0,0-.36.37Z"/><path class="cls-2" d="M39.83,92.48l.76-.52.54.73a2.7,2.7,0,0,0-.81,1.46,2.91,2.91,0,0,0,1.27-1.08l.82.4L42,94.3a2.77,2.77,0,0,0-1.64,0A2.65,2.65,0,0,0,42,94.9l.07.91-.91.1a2.62,2.62,0,0,0-.84-1.42,2.88,2.88,0,0,0,.29,1.62l-.75.52-.54-.73a2.69,2.69,0,0,0,.8-1.45,2.74,2.74,0,0,0-1.26,1.07l-.83-.4.37-.82a2.79,2.79,0,0,0,1.64,0,2.63,2.63,0,0,0-1.55-.58l-.07-.9.91-.1a2.7,2.7,0,0,0,.84,1.41A2.81,2.81,0,0,0,39.83,92.48Z"/><polygon class="cls-3" points="71.12 78.52 60.75 78.52 60.75 71.39 65.94 65.26 71.12 71.39 71.12 78.52"/><rect class="cls-4" x="71.12" y="71.39" width="26.48" height="7.13"/><polygon class="cls-5" points="65.94 65.26 71.12 71.39 97.61 71.39 91.65 65.43 65.94 65.26"/><circle class="cls-6" cx="65.48" cy="70.5" r="1.39"/><polygon class="cls-7" points="82.47 66.25 80.36 66.25 78.25 66.25 78.25 62.85 82.47 62.85 82.47 66.25"/><polygon class="cls-8" points="80.36 60.69 77.81 62.85 82.91 62.85 80.36 60.69"/><path class="cls-9" d="M81.19,63.52h0a.46.46,0,0,1,.46.46v1.7a0,0,0,0,1,0,0h-.92a0,0,0,0,1,0,0V64A.46.46,0,0,1,81.19,63.52Z"/><path class="cls-9" d="M79.53,63.52h0A.46.46,0,0,1,80,64v1.7a0,0,0,0,1,0,0h-.92a0,0,0,0,1,0,0V64A.46.46,0,0,1,79.53,63.52Z"/><line class="cls-10" x1="71.12" y1="72.68" x2="85.99" y2="72.68"/><line class="cls-10" x1="88.32" y1="72.68" x2="97.61" y2="72.68"/><line class="cls-10" x1="71.12" y1="75.95" x2="85.99" y2="75.95"/><line class="cls-10" x1="87.71" y1="75.95" x2="97.61" y2="75.95"/><line class="cls-10" x1="82.74" y1="74.2" x2="97.61" y2="74.2"/><line class="cls-10" x1="71.12" y1="74.2" x2="80.79" y2="74.2"/><line class="cls-10" x1="81.77" y1="77.53" x2="97.61" y2="77.53"/><line class="cls-10" x1="71.12" y1="77.53" x2="79.99" y2="77.53"/><polygon class="cls-3" points="87.23 79.97 97.61 79.97 97.61 87.1 92.42 93.23 87.23 87.1 87.23 79.97"/><rect class="cls-4" x="60.75" y="79.97" width="26.48" height="7.13" transform="translate(147.98 167.08) rotate(180)"/><polygon class="cls-5" points="92.42 93.23 87.23 87.1 60.75 87.1 66.7 93.06 92.42 93.23"/><circle class="cls-6" cx="92.88" cy="87.99" r="1.39"/><polygon class="cls-7" points="75.89 92.24 78 92.24 80.11 92.24 80.11 95.64 75.89 95.64 75.89 92.24"/><polygon class="cls-8" points="78 97.81 80.55 95.64 75.44 95.64 78 97.81"/><path class="cls-9" d="M77.17,92.81h0a.46.46,0,0,1,.46.46V95a0,0,0,0,1,0,0h-.92a0,0,0,0,1,0,0v-1.7a.46.46,0,0,1,.46-.46Z" transform="translate(154.34 187.78) rotate(-180)"/><path class="cls-9" d="M78.82,92.81h0a.46.46,0,0,1,.46.46V95a0,0,0,0,1,0,0h-.92a0,0,0,0,1,0,0v-1.7A.46.46,0,0,1,78.82,92.81Z" transform="translate(157.65 187.78) rotate(-180)"/><line class="cls-10" x1="87.23" y1="85.82" x2="72.36" y2="85.82"/><line class="cls-10" x1="70.04" y1="85.82" x2="60.75" y2="85.82"/><line class="cls-10" x1="87.23" y1="82.54" x2="72.36" y2="82.54"/><line class="cls-10" x1="70.65" y1="82.54" x2="60.75" y2="82.54"/><line class="cls-10" x1="75.62" y1="84.29" x2="60.75" y2="84.29"/><line class="cls-10" x1="87.23" y1="84.29" x2="77.57" y2="84.29"/><line class="cls-10" x1="76.58" y1="80.97" x2="60.75" y2="80.97"/><line class="cls-10" x1="87.23" y1="80.97" x2="78.36" y2="80.97"/><polygon class="cls-2" points="73.4 60.82 73.99 59.3 74.58 60.82 76.11 61.41 74.58 62.01 73.99 63.53 73.4 62.01 71.87 61.41 73.4 60.82"/><polygon class="cls-2" points="87.29 57.12 87.59 56.35 87.89 57.12 88.65 57.41 87.89 57.71 87.59 58.47 87.29 57.71 86.53 57.41 87.29 57.12"/><polygon class="cls-2" points="67.31 56.06 67.61 55.3 67.91 56.06 68.67 56.35 67.91 56.65 67.61 57.41 67.31 56.65 66.55 56.35 67.31 56.06"/><polygon class="cls-2" points="100.52 69.38 100.98 68.21 101.44 69.38 102.61 69.84 101.44 70.3 100.98 71.48 100.52 70.3 99.34 69.84 100.52 69.38"/><polygon class="cls-2" points="58.78 66.52 59.24 65.34 59.7 66.52 60.87 66.98 59.7 67.44 59.24 68.62 58.78 67.44 57.6 66.98 58.78 66.52"/><polygon class="cls-2" points="53.87 75.38 54.17 74.62 54.46 75.38 55.23 75.68 54.46 75.98 54.17 76.74 53.87 75.98 53.11 75.68 53.87 75.38"/><polygon class="cls-2" points="98.04 65.12 98.34 64.35 98.63 65.12 99.4 65.41 98.63 65.71 98.34 66.47 98.04 65.71 97.28 65.41 98.04 65.12"/><polygon class="cls-2" points="102.5 81.99 103.09 80.47 103.69 81.99 105.21 82.58 103.69 83.18 103.09 84.7 102.5 83.18 100.98 82.58 102.5 81.99"/><polygon class="cls-2" points="97.68 95.87 98.34 97.36 96.84 96.71 95.34 97.36 96 95.87 95.34 94.37 96.84 95.03 98.34 94.37 97.68 95.87"/><polygon class="cls-2" points="74.41 103.16 74.74 103.91 73.99 103.58 73.24 103.91 73.57 103.16 73.24 102.41 73.99 102.74 74.74 102.41 74.41 103.16"/><polygon class="cls-2" points="100.65 89.44 100.98 90.19 100.23 89.86 99.48 90.19 99.81 89.44 99.48 88.69 100.23 89.02 100.98 88.69 100.65 89.44"/><polygon class="cls-2" points="70.61 98.52 71.12 99.68 69.97 99.17 68.81 99.68 69.31 98.52 68.81 97.36 69.97 97.87 71.12 97.36 70.61 98.52"/><polygon class="cls-2" points="57.03 85.57 57.54 86.73 56.38 86.22 55.23 86.73 55.73 85.57 55.23 84.42 56.38 84.92 57.54 84.42 57.03 85.57"/><polygon class="cls-2" points="91.91 63.16 92.24 63.91 91.49 63.58 90.74 63.91 91.07 63.16 90.74 62.41 91.49 62.74 92.24 62.41 91.91 63.16"/><polygon class="cls-2" points="86.95 103.16 87.28 103.91 86.53 103.58 85.78 103.91 86.11 103.16 85.78 102.41 86.53 102.74 87.28 102.41 86.95 103.16"/><polygon class="cls-2" points="61.57 94.91 62.23 96.41 60.73 95.75 59.24 96.41 59.89 94.91 59.24 93.41 60.73 94.07 62.23 93.41 61.57 94.91"/></g></g></svg>